<?xml version="1.0" encoding="UTF-8" standalone="no"?>
<!DOCTYPE svg PUBLIC "-//W3C//DTD SVG 1.1//EN"
 "http://www.w3.org/Graphics/SVG/1.1/DTD/svg11.dtd">
<!-- Generated by graphviz version 9.0.0 (20230911.1827)
 -->
<!-- Title: MIPS_Pipeline Pages: 1 -->
<svg width="2060pt" height="1560pt"
 viewBox="0.00 0.00 2060.26 1560.00" xmlns="http://www.w3.org/2000/svg" xmlns:xlink="http://www.w3.org/1999/xlink">
<g id="graph0" class="graph" transform="scale(1 1) rotate(0) translate(4 1556)">
<title>MIPS_Pipeline</title>
<polygon fill="white" stroke="none" points="-4,4 -4,-1556 2056.26,-1556 2056.26,4 -4,4"/>
<g id="clust2" class="cluster">
<title>cluster_ID</title>
<polygon fill="none" stroke="#d9f2d9" points="389.84,-910 389.84,-1274 955.48,-1274 955.48,-910 389.84,-910"/>
<text text-anchor="middle" x="672.66" y="-1258.6" font-family="Times New Roman,serif" font-size="12.00">ID</text>
</g>
<g id="clust1" class="cluster">
<title>cluster_IF</title>
<polygon fill="none" stroke="#b3d9ff" points="803.21,-1339 803.21,-1544 1245.17,-1544 1245.17,-1339 803.21,-1339"/>
<text text-anchor="middle" x="1024.19" y="-1528.6" font-family="Times New Roman,serif" font-size="12.00">IF</text>
</g>
<g id="clust5" class="cluster">
<title>cluster_WB</title>
<polygon fill="none" stroke="#e6e6ff" points="8,-837 8,-933 177.09,-933 177.09,-837 8,-837"/>
<text text-anchor="middle" x="92.54" y="-917.6" font-family="Times New Roman,serif" font-size="12.00">WB</text>
</g>
<g id="clust3" class="cluster">
<title>cluster_EX</title>
<polygon fill="none" stroke="#ffd9b3" points="1104.09,-754 1104.09,-1052 2035.27,-1052 2035.27,-754 1104.09,-754"/>
<text text-anchor="middle" x="1569.68" y="-1036.6" font-family="Times New Roman,serif" font-size="12.00">EX</text>
</g>
<g id="clust4" class="cluster">
<title>cluster_MEM</title>
<polygon fill="none" stroke="#ffe6f2" points="1519.53,-50 1519.53,-147 2044.26,-147 2044.26,-50 1519.53,-50"/>
<text text-anchor="middle" x="1781.89" y="-131.6" font-family="Times New Roman,serif" font-size="12.00">MEM</text>
</g>
<!-- PC -->
<g id="node1" class="node">
<title>PC</title>
<path fill="#f2f2f2" stroke="black" d="M923.96,-1431.5C923.96,-1431.5 823.21,-1431.5 823.21,-1431.5 817.21,-1431.5 811.21,-1425.5 811.21,-1419.5 811.21,-1419.5 811.21,-1402.5 811.21,-1402.5 811.21,-1396.5 817.21,-1390.5 823.21,-1390.5 823.21,-1390.5 923.96,-1390.5 923.96,-1390.5 929.96,-1390.5 935.96,-1396.5 935.96,-1402.5 935.96,-1402.5 935.96,-1419.5 935.96,-1419.5 935.96,-1425.5 929.96,-1431.5 923.96,-1431.5"/>
<text text-anchor="middle" x="873.59" y="-1414.2" font-family="Helvetica,sans-Serif" font-size="14.00">Program Counter</text>
<text text-anchor="middle" x="873.59" y="-1397.7" font-family="Helvetica,sans-Serif" font-size="14.00">(PC)</text>
</g>
<!-- PC4 -->
<g id="node2" class="node">
<title>PC4</title>
<ellipse fill="#fff2cc" stroke="black" cx="1196.06" cy="-1388" rx="41.12" ry="41.12"/>
<text text-anchor="middle" x="1196.06" y="-1382.95" font-family="Helvetica,sans-Serif" font-size="14.00">PC + 4</text>
</g>
<!-- PC&#45;&gt;PC4 -->
<g id="edge2" class="edge">
<title>PC&#45;&gt;PC4</title>
<path fill="none" stroke="black" d="M936.15,-1409.81C936.15,-1409.81 1149.1,-1409.81 1149.1,-1409.81"/>
<polygon fill="black" stroke="black" points="1149.1,-1413.31 1159.1,-1409.81 1149.1,-1406.31 1149.1,-1413.31"/>
<text text-anchor="middle" x="1035.96" y="-1397.45" font-family="Times New Roman,serif" font-size="14.00">PC+4</text>
</g>
<!-- IMEM -->
<g id="node3" class="node">
<title>IMEM</title>
<path fill="#f2f2f2" stroke="black" d="M1224.68,-1513.5C1224.68,-1513.5 1167.43,-1513.5 1167.43,-1513.5 1161.43,-1513.5 1155.43,-1507.5 1155.43,-1501.5 1155.43,-1501.5 1155.43,-1484.5 1155.43,-1484.5 1155.43,-1478.5 1161.43,-1472.5 1167.43,-1472.5 1167.43,-1472.5 1224.68,-1472.5 1224.68,-1472.5 1230.68,-1472.5 1236.68,-1478.5 1236.68,-1484.5 1236.68,-1484.5 1236.68,-1501.5 1236.68,-1501.5 1236.68,-1507.5 1230.68,-1513.5 1224.68,-1513.5"/>
<text text-anchor="middle" x="1196.06" y="-1496.2" font-family="Helvetica,sans-Serif" font-size="14.00">Instruction</text>
<text text-anchor="middle" x="1196.06" y="-1479.7" font-family="Helvetica,sans-Serif" font-size="14.00">Memory</text>
</g>
<!-- PC&#45;&gt;IMEM -->
<g id="edge1" class="edge">
<title>PC&#45;&gt;IMEM</title>
<path fill="none" stroke="black" d="M874.42,-1431.94C874.42,-1454.18 874.42,-1486.17 874.42,-1486.17 874.42,-1486.17 1143.48,-1486.17 1143.48,-1486.17"/>
<polygon fill="black" stroke="black" points="1143.48,-1489.67 1153.48,-1486.17 1143.48,-1482.67 1143.48,-1489.67"/>
<text text-anchor="middle" x="1035.96" y="-1461.45" font-family="Times New Roman,serif" font-size="14.00">addr</text>
</g>
<!-- IF_ID -->
<g id="node4" class="node">
<title>IF_ID</title>
<path fill="#ffffff" stroke="black" d="M142.92,-1277C142.92,-1277 42.17,-1277 42.17,-1277 36.17,-1277 30.17,-1271 30.17,-1265 30.17,-1265 30.17,-965 30.17,-965 30.17,-959 36.17,-953 42.17,-953 42.17,-953 142.92,-953 142.92,-953 148.92,-953 154.92,-959 154.92,-965 154.92,-965 154.92,-1265 154.92,-1265 154.92,-1271 148.92,-1277 142.92,-1277"/>
<text text-anchor="middle" x="92.54" y="-1118.2" font-family="Helvetica,sans-Serif" font-size="14.00">IF/ID</text>
<text text-anchor="middle" x="92.54" y="-1101.7" font-family="Helvetica,sans-Serif" font-size="14.00">Pipeline Register</text>
</g>
<!-- PC4&#45;&gt;IF_ID -->
<g id="edge4" class="edge">
<title>PC4&#45;&gt;IF_ID</title>
<path fill="none" stroke="black" d="M1196.42,-1346.7C1196.42,-1311.3 1196.42,-1266 1196.42,-1266 1196.42,-1266 166.57,-1266 166.57,-1266"/>
<polygon fill="black" stroke="black" points="166.57,-1262.5 156.57,-1266 166.57,-1269.5 166.57,-1262.5"/>
<text text-anchor="middle" x="674.84" y="-1327.45" font-family="Times New Roman,serif" font-size="14.00">PC+4</text>
</g>
<!-- IMEM&#45;&gt;IF_ID -->
<g id="edge3" class="edge">
<title>IMEM&#45;&gt;IF_ID</title>
<path fill="none" stroke="black" d="M1155.18,-1499.83C955.62,-1499.83 93.42,-1499.83 93.42,-1499.83 93.42,-1499.83 93.42,-1288.88 93.42,-1288.88"/>
<polygon fill="black" stroke="black" points="96.92,-1288.88 93.42,-1278.88 89.92,-1288.88 96.92,-1288.88"/>
<text text-anchor="middle" x="674.84" y="-1504.45" font-family="Times New Roman,serif" font-size="14.00">Instruction</text>
</g>
<!-- RegFile -->
<g id="node5" class="node">
<title>RegFile</title>
<path fill="#f2f2f2" stroke="black" d="M550.34,-959.5C550.34,-959.5 409.84,-959.5 409.84,-959.5 403.84,-959.5 397.84,-953.5 397.84,-947.5 397.84,-947.5 397.84,-930.5 397.84,-930.5 397.84,-924.5 403.84,-918.5 409.84,-918.5 409.84,-918.5 550.34,-918.5 550.34,-918.5 556.34,-918.5 562.34,-924.5 562.34,-930.5 562.34,-930.5 562.34,-947.5 562.34,-947.5 562.34,-953.5 556.34,-959.5 550.34,-959.5"/>
<text text-anchor="middle" x="480.09" y="-942.2" font-family="Helvetica,sans-Serif" font-size="14.00">Register File</text>
<text text-anchor="middle" x="480.09" y="-925.7" font-family="Helvetica,sans-Serif" font-size="14.00">(read ports &amp; write port)</text>
</g>
<!-- IF_ID&#45;&gt;RegFile -->
<g id="edge6" class="edge">
<title>IF_ID&#45;&gt;RegFile</title>
<path fill="none" stroke="black" d="M155.25,-976.68C245.8,-976.68 402.42,-976.68 402.42,-976.68 402.42,-976.68 402.42,-971.11 402.42,-971.11"/>
<polygon fill="black" stroke="black" points="405.92,-971.11 402.42,-961.11 398.92,-971.11 405.92,-971.11"/>
<text text-anchor="middle" x="283.46" y="-976.45" font-family="Times New Roman,serif" font-size="14.00">rs, rt (read indices)</text>
</g>
<!-- SignExt -->
<g id="node6" class="node">
<title>SignExt</title>
<path fill="#f2f2f2" stroke="black" d="M514.71,-1143.5C514.71,-1143.5 445.46,-1143.5 445.46,-1143.5 439.46,-1143.5 433.46,-1137.5 433.46,-1131.5 433.46,-1131.5 433.46,-1114.5 433.46,-1114.5 433.46,-1108.5 439.46,-1102.5 445.46,-1102.5 445.46,-1102.5 514.71,-1102.5 514.71,-1102.5 520.71,-1102.5 526.71,-1108.5 526.71,-1114.5 526.71,-1114.5 526.71,-1131.5 526.71,-1131.5 526.71,-1137.5 520.71,-1143.5 514.71,-1143.5"/>
<text text-anchor="middle" x="480.09" y="-1126.2" font-family="Helvetica,sans-Serif" font-size="14.00">Sign&#45;Extend</text>
<text text-anchor="middle" x="480.09" y="-1109.7" font-family="Helvetica,sans-Serif" font-size="14.00">(immediate)</text>
</g>
<!-- IF_ID&#45;&gt;SignExt -->
<g id="edge7" class="edge">
<title>IF_ID&#45;&gt;SignExt</title>
<path fill="none" stroke="black" d="M155.24,-1123C155.24,-1123 421.52,-1123 421.52,-1123"/>
<polygon fill="black" stroke="black" points="421.52,-1126.5 431.52,-1123 421.52,-1119.5 421.52,-1126.5"/>
<text text-anchor="middle" x="283.46" y="-1114.45" font-family="Times New Roman,serif" font-size="14.00">instr[15:0]</text>
</g>
<!-- MainCtrl -->
<g id="node7" class="node">
<title>MainCtrl</title>
<ellipse fill="#ffd1dc" stroke="black" cx="480.09" cy="-1031" rx="67" ry="28.99"/>
<text text-anchor="middle" x="480.09" y="-1034.2" font-family="Helvetica,sans-Serif" font-size="14.00">Main Control</text>
<text text-anchor="middle" x="480.09" y="-1017.7" font-family="Helvetica,sans-Serif" font-size="14.00">(decoder)</text>
</g>
<!-- IF_ID&#45;&gt;MainCtrl -->
<g id="edge5" class="edge">
<title>IF_ID&#45;&gt;MainCtrl</title>
<path fill="none" stroke="black" d="M155.24,-1031C155.24,-1031 401.08,-1031 401.08,-1031"/>
<polygon fill="black" stroke="black" points="401.08,-1034.5 411.08,-1031 401.08,-1027.5 401.08,-1034.5"/>
<text text-anchor="middle" x="283.46" y="-1044.45" font-family="Times New Roman,serif" font-size="14.00">opcode</text>
</g>
<!-- Hazard -->
<g id="node8" class="node">
<title>Hazard</title>
<ellipse fill="#fff2cc" stroke="black" cx="480.09" cy="-1215" rx="73.89" ry="28.99"/>
<text text-anchor="middle" x="480.09" y="-1218.2" font-family="Helvetica,sans-Serif" font-size="14.00">Hazard</text>
<text text-anchor="middle" x="480.09" y="-1201.7" font-family="Helvetica,sans-Serif" font-size="14.00">Detection Unit</text>
</g>
<!-- IF_ID&#45;&gt;Hazard -->
<g id="edge11" class="edge">
<title>IF_ID&#45;&gt;Hazard</title>
<path fill="none" stroke="black" d="M155.24,-1224.66C155.24,-1224.66 398.43,-1224.66 398.43,-1224.66"/>
<polygon fill="black" stroke="black" points="398.43,-1228.16 408.43,-1224.66 398.43,-1221.16 398.43,-1228.16"/>
<text text-anchor="middle" x="283.46" y="-1178.45" font-family="Times New Roman,serif" font-size="14.00">rs, rt</text>
</g>
<!-- ID_EX -->
<g id="node10" class="node">
<title>ID_EX</title>
<path fill="#ffffff" stroke="black" d="M923.96,-902C923.96,-902 823.21,-902 823.21,-902 817.21,-902 811.21,-896 811.21,-890 811.21,-890 811.21,-590 811.21,-590 811.21,-584 817.21,-578 823.21,-578 823.21,-578 923.96,-578 923.96,-578 929.96,-578 935.96,-584 935.96,-590 935.96,-590 935.96,-890 935.96,-890 935.96,-896 929.96,-902 923.96,-902"/>
<text text-anchor="middle" x="873.59" y="-743.2" font-family="Helvetica,sans-Serif" font-size="14.00">ID/EX</text>
<text text-anchor="middle" x="873.59" y="-726.7" font-family="Helvetica,sans-Serif" font-size="14.00">Pipeline Register</text>
</g>
<!-- IF_ID&#45;&gt;ID_EX -->
<!-- RegFile&#45;&gt;ID_EX -->
<g id="edge9" class="edge">
<title>RegFile&#45;&gt;ID_EX</title>
<path fill="none" stroke="black" d="M562.73,-940.25C668,-940.25 836.42,-940.25 836.42,-940.25 836.42,-940.25 836.42,-913.62 836.42,-913.62"/>
<polygon fill="black" stroke="black" points="839.92,-913.62 836.42,-903.62 832.92,-913.62 839.92,-913.62"/>
<text text-anchor="middle" x="674.84" y="-793.95" font-family="Times New Roman,serif" font-size="14.00">ReadData1</text>
<text text-anchor="middle" x="674.84" y="-778.2" font-family="Times New Roman,serif" font-size="14.00">ReadData2</text>
<text text-anchor="middle" x="674.84" y="-762.45" font-family="Times New Roman,serif" font-size="14.00">rs, rt, rd</text>
</g>
<!-- SignExt&#45;&gt;ID_EX -->
<g id="edge10" class="edge">
<title>SignExt&#45;&gt;ID_EX</title>
<path fill="none" stroke="black" d="M527.09,-1123C568.55,-1123 622.42,-1123 622.42,-1123 622.42,-1123 622.42,-859.26 622.42,-859.26 622.42,-859.26 799.34,-859.26 799.34,-859.26"/>
<polygon fill="black" stroke="black" points="799.34,-862.76 809.34,-859.26 799.34,-855.76 799.34,-862.76"/>
<text text-anchor="middle" x="674.84" y="-1031.45" font-family="Times New Roman,serif" font-size="14.00">SignExtImm</text>
</g>
<!-- MainCtrl&#45;&gt;ID_EX -->
<g id="edge8" class="edge">
<title>MainCtrl&#45;&gt;ID_EX</title>
<path fill="none" stroke="black" d="M531.55,-1012C640.89,-1012 886.42,-1012 886.42,-1012 886.42,-1012 886.42,-913.66 886.42,-913.66"/>
<polygon fill="black" stroke="black" points="889.92,-913.66 886.42,-903.66 882.92,-913.66 889.92,-913.66"/>
<text text-anchor="middle" x="674.84" y="-967.7" font-family="Times New Roman,serif" font-size="14.00">RegWrite_cand</text>
<text text-anchor="middle" x="674.84" y="-951.95" font-family="Times New Roman,serif" font-size="14.00">RegDst_cand</text>
<text text-anchor="middle" x="674.84" y="-936.2" font-family="Times New Roman,serif" font-size="14.00">ALUSrc_cand</text>
<text text-anchor="middle" x="674.84" y="-920.45" font-family="Times New Roman,serif" font-size="14.00">ALUOp_cand</text>
<text text-anchor="middle" x="674.84" y="-904.7" font-family="Times New Roman,serif" font-size="14.00">MemRead_cand</text>
<text text-anchor="middle" x="674.84" y="-888.95" font-family="Times New Roman,serif" font-size="14.00">MemWrite_cand</text>
<text text-anchor="middle" x="674.84" y="-873.2" font-family="Times New Roman,serif" font-size="14.00">MemToReg_cand</text>
<text text-anchor="middle" x="674.84" y="-857.45" font-family="Times New Roman,serif" font-size="14.00">Branch_cand</text>
</g>
<!-- Hazard&#45;&gt;PC -->
<g id="edge14" class="edge">
<title>Hazard&#45;&gt;PC</title>
<path fill="none" stroke="black" d="M540.07,-1232.39C645.6,-1232.39 853.42,-1232.39 853.42,-1232.39 853.42,-1232.39 853.42,-1378.65 853.42,-1378.65"/>
<polygon fill="black" stroke="black" points="849.92,-1378.65 853.42,-1388.65 856.92,-1378.65 849.92,-1378.65"/>
<text text-anchor="middle" x="674.84" y="-1402.45" font-family="Times New Roman,serif" font-size="14.00">PCWrite</text>
</g>
<!-- Hazard&#45;&gt;IF_ID -->
<g id="edge13" class="edge">
<title>Hazard&#45;&gt;IF_ID</title>
<path fill="none" stroke="black" d="M409.91,-1205.34C409.91,-1205.34 166.67,-1205.34 166.67,-1205.34"/>
<polygon fill="black" stroke="black" points="166.67,-1201.84 156.67,-1205.34 166.67,-1208.84 166.67,-1201.84"/>
<text text-anchor="middle" x="283.46" y="-1242.45" font-family="Times New Roman,serif" font-size="14.00">IF_ID_Write / Flush_IF_ID</text>
</g>
<!-- STALL_NODE -->
<g id="node9" class="node">
<title>STALL_NODE</title>
<ellipse fill="#ffe6cc" stroke="black" cx="873.59" cy="-1115" rx="73.89" ry="28.99"/>
<text text-anchor="middle" x="873.59" y="-1118.2" font-family="Helvetica,sans-Serif" font-size="14.00">STALL</text>
<text text-anchor="middle" x="873.59" y="-1101.7" font-family="Helvetica,sans-Serif" font-size="14.00">Control Signal</text>
</g>
<!-- Hazard&#45;&gt;STALL_NODE -->
<g id="edge16" class="edge">
<title>Hazard&#45;&gt;STALL_NODE</title>
<path fill="none" stroke="black" d="M552.92,-1220.8C649.1,-1220.8 806.42,-1220.8 806.42,-1220.8 806.42,-1220.8 806.42,-1139.07 806.42,-1139.07"/>
<polygon fill="black" stroke="black" points="809.92,-1139.07 806.42,-1129.07 802.92,-1139.07 809.92,-1139.07"/>
<text text-anchor="middle" x="674.84" y="-1223.45" font-family="Times New Roman,serif" font-size="14.00">Stall (NEW)</text>
</g>
<!-- Hazard&#45;&gt;ID_EX -->
<g id="edge15" class="edge">
<title>Hazard&#45;&gt;ID_EX</title>
<path fill="none" stroke="black" d="M539.95,-1197.61C599.3,-1197.61 681.42,-1197.61 681.42,-1197.61 681.42,-1197.61 681.42,-873.5 681.42,-873.5 681.42,-873.5 799.42,-873.5 799.42,-873.5"/>
<polygon fill="black" stroke="black" points="799.42,-877 809.42,-873.5 799.42,-870 799.42,-877"/>
<text text-anchor="middle" x="674.84" y="-1159.45" font-family="Times New Roman,serif" font-size="14.00">ID_EX_Flush (bubble)</text>
</g>
<!-- STALL_NODE&#45;&gt;ID_EX -->
<g id="edge17" class="edge">
<title>STALL_NODE&#45;&gt;ID_EX</title>
<path fill="none" stroke="black" d="M911.42,-1089.81C911.42,-1089.81 911.42,-914.01 911.42,-914.01"/>
<polygon fill="black" stroke="black" points="914.92,-914.01 911.42,-904.01 907.92,-914.01 914.92,-914.01"/>
</g>
<!-- ID_EX&#45;&gt;Hazard -->
<g id="edge12" class="edge">
<title>ID_EX&#45;&gt;Hazard</title>
<path fill="none" stroke="black" d="M810.9,-887.75C776.37,-887.75 740.42,-887.75 740.42,-887.75 740.42,-887.75 740.42,-1209.2 740.42,-1209.2 740.42,-1209.2 564.47,-1209.2 564.47,-1209.2"/>
<polygon fill="black" stroke="black" points="564.47,-1205.7 554.47,-1209.2 564.47,-1212.7 564.47,-1205.7"/>
<text text-anchor="middle" x="674.84" y="-1095.45" font-family="Times New Roman,serif" font-size="14.00">ID/EX.rt, ID/EX.MemRead</text>
</g>
<!-- RegDstMUX -->
<g id="node11" class="node">
<title>RegDstMUX</title>
<ellipse fill="#ffe6cc" stroke="black" cx="1196.06" cy="-791" rx="45.79" ry="28.99"/>
<text text-anchor="middle" x="1196.06" y="-794.2" font-family="Helvetica,sans-Serif" font-size="14.00">RegDst</text>
<text text-anchor="middle" x="1196.06" y="-777.7" font-family="Helvetica,sans-Serif" font-size="14.00">Mux</text>
</g>
<!-- ID_EX&#45;&gt;RegDstMUX -->
<g id="edge18" class="edge">
<title>ID_EX&#45;&gt;RegDstMUX</title>
<path fill="none" stroke="black" d="M936.15,-791C936.15,-791 1138.33,-791 1138.33,-791"/>
<polygon fill="black" stroke="black" points="1138.33,-794.5 1148.33,-791 1138.33,-787.5 1138.33,-794.5"/>
<text text-anchor="middle" x="1035.96" y="-685.45" font-family="Times New Roman,serif" font-size="14.00">rd, rt selection</text>
</g>
<!-- ALUSrcMUX -->
<g id="node12" class="node">
<title>ALUSrcMUX</title>
<ellipse fill="#ffe6cc" stroke="black" cx="1196.06" cy="-892" rx="46.32" ry="28.99"/>
<text text-anchor="middle" x="1196.06" y="-895.2" font-family="Helvetica,sans-Serif" font-size="14.00">ALUSrc</text>
<text text-anchor="middle" x="1196.06" y="-878.7" font-family="Helvetica,sans-Serif" font-size="14.00">Mux</text>
</g>
<!-- ID_EX&#45;&gt;ALUSrcMUX -->
<g id="edge19" class="edge">
<title>ID_EX&#45;&gt;ALUSrcMUX</title>
<path fill="none" stroke="black" d="M936.15,-876.01C936.15,-876.01 1145.48,-876.01 1145.48,-876.01"/>
<polygon fill="black" stroke="black" points="1145.48,-879.51 1155.48,-876.01 1145.48,-872.51 1145.48,-879.51"/>
<text text-anchor="middle" x="1035.96" y="-832.45" font-family="Times New Roman,serif" font-size="14.00">regB vs imm</text>
</g>
<!-- ALU -->
<g id="node13" class="node">
<title>ALU</title>
<path fill="#f2f2f2" stroke="black" d="M1625.43,-890C1625.43,-890 1595.43,-890 1595.43,-890 1589.43,-890 1583.43,-884 1583.43,-878 1583.43,-878 1583.43,-866 1583.43,-866 1583.43,-860 1589.43,-854 1595.43,-854 1595.43,-854 1625.43,-854 1625.43,-854 1631.43,-854 1637.43,-860 1637.43,-866 1637.43,-866 1637.43,-878 1637.43,-878 1637.43,-884 1631.43,-890 1625.43,-890"/>
<text text-anchor="middle" x="1610.43" y="-866.95" font-family="Helvetica,sans-Serif" font-size="14.00">ALU</text>
</g>
<!-- ID_EX&#45;&gt;ALU -->
<g id="edge24" class="edge">
<title>ID_EX&#45;&gt;ALU</title>
<path fill="none" stroke="black" d="M936.41,-858.5C936.41,-858.5 1571.77,-858.5 1571.77,-858.5"/>
<polygon fill="black" stroke="black" points="1571.77,-862 1581.77,-858.5 1571.77,-855 1571.77,-862"/>
<text text-anchor="middle" x="1196.06" y="-705.45" font-family="Times New Roman,serif" font-size="14.00">ALU A input (ReadData1)</text>
</g>
<!-- ALUCtrl -->
<g id="node14" class="node">
<title>ALUCtrl</title>
<ellipse fill="#ffd1dc" stroke="black" cx="1196.06" cy="-993" rx="83.97" ry="28.99"/>
<text text-anchor="middle" x="1196.06" y="-996.2" font-family="Helvetica,sans-Serif" font-size="14.00">ALU Control</text>
<text text-anchor="middle" x="1196.06" y="-979.7" font-family="Helvetica,sans-Serif" font-size="14.00">(funct + ALUOp)</text>
</g>
<!-- ID_EX&#45;&gt;ALUCtrl -->
<g id="edge20" class="edge">
<title>ID_EX&#45;&gt;ALUCtrl</title>
<path fill="none" stroke="black" d="M936.31,-889C1010.32,-889 1123.42,-889 1123.42,-889 1123.42,-889 1123.42,-966.59 1123.42,-966.59"/>
<polygon fill="black" stroke="black" points="1119.92,-966.59 1123.42,-976.59 1126.92,-966.59 1119.92,-966.59"/>
<text text-anchor="middle" x="1035.96" y="-946.45" font-family="Times New Roman,serif" font-size="14.00">funct</text>
</g>
<!-- PCTarget -->
<g id="node15" class="node">
<title>PCTarget</title>
<path fill="#f2f2f2" stroke="black" d="M1662.68,-1017.5C1662.68,-1017.5 1558.18,-1017.5 1558.18,-1017.5 1552.18,-1017.5 1546.18,-1011.5 1546.18,-1005.5 1546.18,-1005.5 1546.18,-988.5 1546.18,-988.5 1546.18,-982.5 1552.18,-976.5 1558.18,-976.5 1558.18,-976.5 1662.68,-976.5 1662.68,-976.5 1668.68,-976.5 1674.68,-982.5 1674.68,-988.5 1674.68,-988.5 1674.68,-1005.5 1674.68,-1005.5 1674.68,-1011.5 1668.68,-1017.5 1662.68,-1017.5"/>
<text text-anchor="middle" x="1610.43" y="-1000.2" font-family="Helvetica,sans-Serif" font-size="14.00">PC Target</text>
<text text-anchor="middle" x="1610.43" y="-983.7" font-family="Helvetica,sans-Serif" font-size="14.00">(ShiftLeft2 + Add)</text>
</g>
<!-- ID_EX&#45;&gt;PCTarget -->
<g id="edge32" class="edge">
<title>ID_EX&#45;&gt;PCTarget</title>
<path fill="none" stroke="black" d="M936.29,-860.76C1106.84,-860.76 1566.42,-860.76 1566.42,-860.76 1566.42,-860.76 1566.42,-964.5 1566.42,-964.5"/>
<polygon fill="black" stroke="black" points="1562.92,-964.5 1566.42,-974.5 1569.92,-964.5 1562.92,-964.5"/>
<text text-anchor="middle" x="1196.06" y="-1110.45" font-family="Times New Roman,serif" font-size="14.00">PC+offset (from signext)</text>
</g>
<!-- PCSrcMUX -->
<g id="node16" class="node">
<title>PCSrcMUX</title>
<ellipse fill="#ffe6cc" stroke="black" cx="1986.26" cy="-993" rx="41.01" ry="28.99"/>
<text text-anchor="middle" x="1986.26" y="-996.2" font-family="Helvetica,sans-Serif" font-size="14.00">PCSrc</text>
<text text-anchor="middle" x="1986.26" y="-979.7" font-family="Helvetica,sans-Serif" font-size="14.00">Mux</text>
</g>
<!-- ID_EX&#45;&gt;PCSrcMUX -->
<g id="edge35" class="edge">
<title>ID_EX&#45;&gt;PCSrcMUX</title>
<path fill="none" stroke="black" d="M936.21,-837C1171.09,-837 1986.42,-837 1986.42,-837 1986.42,-837 1986.42,-952.14 1986.42,-952.14"/>
<polygon fill="black" stroke="black" points="1982.92,-952.14 1986.42,-962.14 1989.92,-952.14 1982.92,-952.14"/>
<text text-anchor="middle" x="1403.78" y="-1191.45" font-family="Times New Roman,serif" font-size="14.00">Branch_cand</text>
</g>
<!-- EX_MEM -->
<g id="node17" class="node">
<title>EX_MEM</title>
<path fill="#ffffff" stroke="black" d="M1246.43,-617C1246.43,-617 1145.68,-617 1145.68,-617 1139.68,-617 1133.68,-611 1133.68,-605 1133.68,-605 1133.68,-305 1133.68,-305 1133.68,-299 1139.68,-293 1145.68,-293 1145.68,-293 1246.43,-293 1246.43,-293 1252.43,-293 1258.43,-299 1258.43,-305 1258.43,-305 1258.43,-605 1258.43,-605 1258.43,-611 1252.43,-617 1246.43,-617"/>
<text text-anchor="middle" x="1196.06" y="-458.2" font-family="Helvetica,sans-Serif" font-size="14.00">EX/MEM</text>
<text text-anchor="middle" x="1196.06" y="-441.7" font-family="Helvetica,sans-Serif" font-size="14.00">Pipeline Register</text>
</g>
<!-- ID_EX&#45;&gt;EX_MEM -->
<!-- RegDstMUX&#45;&gt;EX_MEM -->
<g id="edge22" class="edge">
<title>RegDstMUX&#45;&gt;EX_MEM</title>
<path fill="none" stroke="black" d="M1196.42,-761.77C1196.42,-761.77 1196.42,-628.62 1196.42,-628.62"/>
<polygon fill="black" stroke="black" points="1199.92,-628.62 1196.42,-618.62 1192.92,-628.62 1199.92,-628.62"/>
<text text-anchor="middle" x="1035.96" y="-706.58" font-family="Times New Roman,serif" font-size="14.00">DestReg</text>
</g>
<!-- ALUSrcMUX&#45;&gt;ALU -->
<g id="edge23" class="edge">
<title>ALUSrcMUX&#45;&gt;ALU</title>
<path fill="none" stroke="black" d="M1230.32,-872.01C1230.32,-872.01 1571.56,-872.01 1571.56,-872.01"/>
<polygon fill="black" stroke="black" points="1571.56,-875.51 1581.56,-872.01 1571.56,-868.51 1571.56,-875.51"/>
<text text-anchor="middle" x="1403.78" y="-895.45" font-family="Times New Roman,serif" font-size="14.00">ALU B input</text>
</g>
<!-- ALU&#45;&gt;PCSrcMUX -->
<g id="edge36" class="edge">
<title>ALU&#45;&gt;PCSrcMUX</title>
<path fill="none" stroke="black" d="M1611.42,-890.48C1611.42,-918.94 1611.42,-970.25 1611.42,-970.25 1611.42,-970.25 1948.39,-970.25 1948.39,-970.25"/>
<polygon fill="black" stroke="black" points="1948.39,-973.75 1958.39,-970.25 1948.39,-966.75 1948.39,-973.75"/>
<text text-anchor="middle" x="1809.22" y="-932.45" font-family="Times New Roman,serif" font-size="14.00">Zero flag</text>
</g>
<!-- ALU&#45;&gt;EX_MEM -->
<g id="edge31" class="edge">
<title>ALU&#45;&gt;EX_MEM</title>
<path fill="none" stroke="black" d="M1583.08,-856.25C1499.07,-856.25 1250.42,-856.25 1250.42,-856.25 1250.42,-856.25 1250.42,-628.85 1250.42,-628.85"/>
<polygon fill="black" stroke="black" points="1253.92,-628.85 1250.42,-618.85 1246.92,-628.85 1253.92,-628.85"/>
<text text-anchor="middle" x="1403.78" y="-636.45" font-family="Times New Roman,serif" font-size="14.00">ALUResult</text>
</g>
<!-- ALUCtrl&#45;&gt;ALU -->
<g id="edge21" class="edge">
<title>ALUCtrl&#45;&gt;ALU</title>
<path fill="none" stroke="black" d="M1269.42,-978.82C1269.42,-948.68 1269.42,-881 1269.42,-881 1269.42,-881 1571.59,-881 1571.59,-881"/>
<polygon fill="black" stroke="black" points="1571.59,-884.5 1581.59,-881 1571.59,-877.5 1571.59,-884.5"/>
<text text-anchor="middle" x="1403.78" y="-977.45" font-family="Times New Roman,serif" font-size="14.00">ALUOp</text>
</g>
<!-- PCTarget&#45;&gt;PCSrcMUX -->
<g id="edge33" class="edge">
<title>PCTarget&#45;&gt;PCSrcMUX</title>
<path fill="none" stroke="black" d="M1675.04,-997C1675.04,-997 1933.86,-997 1933.86,-997"/>
<polygon fill="black" stroke="black" points="1933.86,-1000.5 1943.86,-997 1933.86,-993.5 1933.86,-1000.5"/>
<text text-anchor="middle" x="1809.22" y="-997.45" font-family="Times New Roman,serif" font-size="14.00">TargetAddr</text>
</g>
<!-- PCSrcMUX&#45;&gt;PC -->
<g id="edge34" class="edge">
<title>PCSrcMUX&#45;&gt;PC</title>
<path fill="none" stroke="black" d="M1986.42,-1022.29C1986.42,-1090.66 1986.42,-1254.99 1986.42,-1254.99 1986.42,-1254.99 894.42,-1254.99 894.42,-1254.99 894.42,-1254.99 894.42,-1378.77 894.42,-1378.77"/>
<polygon fill="black" stroke="black" points="890.92,-1378.77 894.42,-1388.77 897.92,-1378.77 890.92,-1378.77"/>
<text text-anchor="middle" x="1403.78" y="-1278.45" font-family="Times New Roman,serif" font-size="14.00">PC next</text>
</g>
<!-- DMEM -->
<g id="node18" class="node">
<title>DMEM</title>
<path fill="#f2f2f2" stroke="black" d="M2024.26,-117C2024.26,-117 1948.26,-117 1948.26,-117 1942.26,-117 1936.26,-111 1936.26,-105 1936.26,-105 1936.26,-93 1936.26,-93 1936.26,-87 1942.26,-81 1948.26,-81 1948.26,-81 2024.26,-81 2024.26,-81 2030.26,-81 2036.26,-87 2036.26,-93 2036.26,-93 2036.26,-105 2036.26,-105 2036.26,-111 2030.26,-117 2024.26,-117"/>
<text text-anchor="middle" x="1986.26" y="-93.95" font-family="Helvetica,sans-Serif" font-size="14.00">Data Memory</text>
</g>
<!-- EX_MEM&#45;&gt;DMEM -->
<g id="edge38" class="edge">
<title>EX_MEM&#45;&gt;DMEM</title>
<path fill="none" stroke="black" d="M1258.74,-538C1448.43,-538 2003.42,-538 2003.42,-538 2003.42,-538 2003.42,-128.82 2003.42,-128.82"/>
<polygon fill="black" stroke="black" points="2006.92,-128.82 2003.42,-118.82 1999.92,-128.82 2006.92,-128.82"/>
<text text-anchor="middle" x="1610.43" y="-2.45" font-family="Times New Roman,serif" font-size="14.00">Addr / control</text>
</g>
<!-- FwdC_MUX -->
<g id="node19" class="node">
<title>FwdC_MUX</title>
<ellipse fill="#ffe6cc" stroke="black" cx="1610.43" cy="-88" rx="82.91" ry="28.99"/>
<text text-anchor="middle" x="1610.43" y="-91.2" font-family="Helvetica,sans-Serif" font-size="14.00">FwdC</text>
<text text-anchor="middle" x="1610.43" y="-74.7" font-family="Helvetica,sans-Serif" font-size="14.00">Mux (store data)</text>
</g>
<!-- EX_MEM&#45;&gt;FwdC_MUX -->
<g id="edge37" class="edge">
<title>EX_MEM&#45;&gt;FwdC_MUX</title>
<path fill="none" stroke="black" d="M1196.42,-292.69C1196.42,-194.45 1196.42,-88 1196.42,-88 1196.42,-88 1515.64,-88 1515.64,-88"/>
<polygon fill="black" stroke="black" points="1515.64,-91.5 1525.64,-88 1515.64,-84.5 1515.64,-91.5"/>
<text text-anchor="middle" x="1403.78" y="-138.45" font-family="Times New Roman,serif" font-size="14.00">store&#45;data in</text>
</g>
<!-- MEM_WB -->
<g id="node20" class="node">
<title>MEM_WB</title>
<path fill="#ffffff" stroke="black" d="M1660.81,-484C1660.81,-484 1560.06,-484 1560.06,-484 1554.06,-484 1548.06,-478 1548.06,-472 1548.06,-472 1548.06,-172 1548.06,-172 1548.06,-166 1554.06,-160 1560.06,-160 1560.06,-160 1660.81,-160 1660.81,-160 1666.81,-160 1672.81,-166 1672.81,-172 1672.81,-172 1672.81,-472 1672.81,-472 1672.81,-478 1666.81,-484 1660.81,-484"/>
<text text-anchor="middle" x="1610.43" y="-325.2" font-family="Helvetica,sans-Serif" font-size="14.00">MEM/WB</text>
<text text-anchor="middle" x="1610.43" y="-308.7" font-family="Helvetica,sans-Serif" font-size="14.00">Pipeline Register</text>
</g>
<!-- EX_MEM&#45;&gt;MEM_WB -->
<g id="edge40" class="edge">
<title>EX_MEM&#45;&gt;MEM_WB</title>
<path fill="none" stroke="black" d="M1258.54,-420.33C1258.54,-420.33 1536.27,-420.33 1536.27,-420.33"/>
<polygon fill="black" stroke="black" points="1536.27,-423.83 1546.27,-420.33 1536.27,-416.83 1536.27,-423.83"/>
<text text-anchor="middle" x="1403.78" y="-441.45" font-family="Times New Roman,serif" font-size="14.00">forward controls &amp; ALUResult</text>
</g>
<!-- EX_MEM&#45;&gt;MEM_WB -->
<!-- ForwardUnit -->
<g id="node22" class="node">
<title>ForwardUnit</title>
<ellipse fill="#fff2cc" stroke="black" cx="1986.26" cy="-621" rx="61.16" ry="28.99"/>
<text text-anchor="middle" x="1986.26" y="-624.2" font-family="Helvetica,sans-Serif" font-size="14.00">Forwarding</text>
<text text-anchor="middle" x="1986.26" y="-607.7" font-family="Helvetica,sans-Serif" font-size="14.00">Unit</text>
</g>
<!-- EX_MEM&#45;&gt;ForwardUnit -->
<g id="edge25" class="edge">
<title>EX_MEM&#45;&gt;ForwardUnit</title>
<path fill="none" stroke="black" d="M1258.72,-610.75C1258.72,-610.75 1917.18,-610.75 1917.18,-610.75"/>
<polygon fill="black" stroke="black" points="1917.18,-614.25 1927.18,-610.75 1917.18,-607.25 1917.18,-614.25"/>
<text text-anchor="middle" x="1610.43" y="-572.45" font-family="Times New Roman,serif" font-size="14.00">EX/MEM.RegWrite &amp; Dest</text>
</g>
<!-- DMEM&#45;&gt;MEM_WB -->
<g id="edge41" class="edge">
<title>DMEM&#45;&gt;MEM_WB</title>
<path fill="none" stroke="black" d="M1970.42,-117.25C1970.42,-170.51 1970.42,-322 1970.42,-322 1970.42,-322 1684.65,-322 1684.65,-322"/>
<polygon fill="black" stroke="black" points="1684.65,-318.5 1674.65,-322 1684.65,-325.5 1684.65,-318.5"/>
<text text-anchor="middle" x="1809.22" y="-245.45" font-family="Times New Roman,serif" font-size="14.00">ReadData</text>
</g>
<!-- FwdC_MUX&#45;&gt;DMEM -->
<g id="edge39" class="edge">
<title>FwdC_MUX&#45;&gt;DMEM</title>
<path fill="none" stroke="black" d="M1687.4,-99C1687.4,-99 1924.3,-99 1924.3,-99"/>
<polygon fill="black" stroke="black" points="1924.3,-102.5 1934.3,-99 1924.3,-95.5 1924.3,-102.5"/>
<text text-anchor="middle" x="1809.22" y="-103.45" font-family="Times New Roman,serif" font-size="14.00">WriteData</text>
</g>
<!-- WBMux -->
<g id="node21" class="node">
<title>WBMux</title>
<ellipse fill="#ffe6cc" stroke="black" cx="92.54" cy="-874" rx="76.54" ry="28.99"/>
<text text-anchor="middle" x="92.54" y="-877.2" font-family="Helvetica,sans-Serif" font-size="14.00">WB Mux</text>
<text text-anchor="middle" x="92.54" y="-860.7" font-family="Helvetica,sans-Serif" font-size="14.00">( MemToReg )</text>
</g>
<!-- MEM_WB&#45;&gt;WBMux -->
<g id="edge42" class="edge">
<title>MEM_WB&#45;&gt;WBMux</title>
<path fill="none" stroke="black" d="M1547.66,-226.5C1261.38,-226.5 93.42,-226.5 93.42,-226.5 93.42,-226.5 93.42,-833.41 93.42,-833.41"/>
<polygon fill="black" stroke="black" points="89.92,-833.41 93.42,-843.41 96.92,-833.41 89.92,-833.41"/>
<text text-anchor="middle" x="873.59" y="-230.45" font-family="Times New Roman,serif" font-size="14.00">MemToReg_cand, ALUResult</text>
</g>
<!-- MEM_WB&#45;&gt;ForwardUnit -->
<g id="edge26" class="edge">
<title>MEM_WB&#45;&gt;ForwardUnit</title>
<path fill="none" stroke="black" d="M1655.42,-484.29C1655.42,-547.25 1655.42,-604.5 1655.42,-604.5 1655.42,-604.5 1923.78,-604.5 1923.78,-604.5"/>
<polygon fill="black" stroke="black" points="1923.78,-608 1933.78,-604.5 1923.78,-601 1923.78,-608"/>
<text text-anchor="middle" x="1809.22" y="-490.45" font-family="Times New Roman,serif" font-size="14.00">MEM/WB.RegWrite &amp; Dest</text>
</g>
<!-- WBMux&#45;&gt;RegFile -->
<g id="edge43" class="edge">
<title>WBMux&#45;&gt;RegFile</title>
<path fill="none" stroke="black" d="M162.42,-886.2C162.42,-904.2 162.42,-935.75 162.42,-935.75 162.42,-935.75 385.94,-935.75 385.94,-935.75"/>
<polygon fill="black" stroke="black" points="385.94,-939.25 395.94,-935.75 385.94,-932.25 385.94,-939.25"/>
<text text-anchor="middle" x="283.46" y="-900.45" font-family="Times New Roman,serif" font-size="14.00">WriteBack (RegWrite)</text>
</g>
<!-- ForwardUnit&#45;&gt;RegDstMUX -->
<g id="edge27" class="edge">
<title>ForwardUnit&#45;&gt;RegDstMUX</title>
<path fill="none" stroke="black" d="M1930.42,-633.5C1930.42,-672.76 1930.42,-791 1930.42,-791 1930.42,-791 1253.79,-791 1253.79,-791"/>
<polygon fill="black" stroke="black" points="1253.79,-787.5 1243.79,-791 1253.79,-794.5 1253.79,-787.5"/>
<text text-anchor="middle" x="1610.43" y="-674.45" font-family="Times New Roman,serif" font-size="14.00">(if needed)</text>
</g>
<!-- ForwardUnit&#45;&gt;ALUSrcMUX -->
<g id="edge28" class="edge">
<title>ForwardUnit&#45;&gt;ALUSrcMUX</title>
<path fill="none" stroke="black" d="M1940.42,-640.55C1940.42,-704.83 1940.42,-905.5 1940.42,-905.5 1940.42,-905.5 1249.19,-905.5 1249.19,-905.5"/>
<polygon fill="black" stroke="black" points="1249.19,-902 1239.19,-905.5 1249.19,-909 1249.19,-902"/>
<text text-anchor="middle" x="1610.43" y="-776.45" font-family="Times New Roman,serif" font-size="14.00">forward selects</text>
</g>
<!-- ForwardUnit&#45;&gt;ALU -->
<g id="edge30" class="edge">
<title>ForwardUnit&#45;&gt;ALU</title>
<path fill="none" stroke="black" d="M1935.42,-637.47C1935.42,-693.31 1935.42,-872 1935.42,-872 1935.42,-872 1649.38,-872 1649.38,-872"/>
<polygon fill="black" stroke="black" points="1649.38,-868.5 1639.38,-872 1649.38,-875.5 1649.38,-868.5"/>
<text text-anchor="middle" x="1809.22" y="-853.45" font-family="Times New Roman,serif" font-size="14.00">FwdA/FwdB selects</text>
</g>
<!-- ForwardUnit&#45;&gt;FwdC_MUX -->
<g id="edge29" class="edge">
<title>ForwardUnit&#45;&gt;FwdC_MUX</title>
<path fill="none" stroke="black" d="M1947.11,-598.26C1865.44,-598.26 1684.42,-598.26 1684.42,-598.26 1684.42,-598.26 1684.42,-112.9 1684.42,-112.9"/>
<polygon fill="black" stroke="black" points="1687.92,-112.9 1684.42,-102.9 1680.92,-112.9 1687.92,-112.9"/>
<text text-anchor="middle" x="1809.22" y="-387.45" font-family="Times New Roman,serif" font-size="14.00">FwdC select for store&#45;data</text>
</g>
</g>
</svg>
