<?xml version="1.0" encoding="UTF-8" standalone="no"?>
<!DOCTYPE svg PUBLIC "-//W3C//DTD SVG 1.1//EN"
 "http://www.w3.org/Graphics/SVG/1.1/DTD/svg11.dtd">
<!-- Generated by graphviz version 9.0.0 (20230911.1827)
 -->
<!-- Title: riscv_datapath Pages: 1 -->
<svg width="1526pt" height="552pt"
 viewBox="0.00 0.00 1526.12 551.75" xmlns="http://www.w3.org/2000/svg" xmlns:xlink="http://www.w3.org/1999/xlink">
<g id="graph0" class="graph" transform="scale(1 1) rotate(0) translate(4 547.75)">
<title>riscv_datapath</title>
<polygon fill="white" stroke="none" points="-4,4 -4,-547.75 1522.12,-547.75 1522.12,4 -4,4"/>
<g id="clust2" class="cluster">
<title>cluster_ID</title>
<polygon fill="none" stroke="green" points="397,-226 397,-496 674.38,-496 674.38,-226 397,-226"/>
<text text-anchor="middle" x="535.69" y="-480.6" font-family="Times New Roman,serif" font-size="12.00">ID Stage</text>
</g>
<g id="clust1" class="cluster">
<title>cluster_IF</title>
<polygon fill="none" stroke="blue" points="8,-309 8,-477 270.5,-477 270.5,-309 8,-309"/>
<text text-anchor="middle" x="139.25" y="-461.6" font-family="Times New Roman,serif" font-size="12.00">IF Stage</text>
</g>
<g id="clust3" class="cluster">
<title>cluster_EX</title>
<polygon fill="none" stroke="red" points="796.75,-228 796.75,-494 1335.49,-494 1335.49,-228 796.75,-228"/>
<text text-anchor="middle" x="1066.12" y="-478.6" font-family="Times New Roman,serif" font-size="12.00">EX Stage</text>
</g>
<g id="clust4" class="cluster">
<title>cluster_MEM</title>
<polygon fill="none" stroke="orange" points="1241.99,-142 1241.99,-220 1321.24,-220 1321.24,-142 1241.99,-142"/>
<text text-anchor="middle" x="1281.62" y="-204.6" font-family="Times New Roman,serif" font-size="12.00">MEM Stage</text>
</g>
<g id="clust5" class="cluster">
<title>cluster_WB</title>
<polygon fill="none" stroke="purple" points="167.43,-8 167.43,-82 281.57,-82 281.57,-8 167.43,-8"/>
<text text-anchor="middle" x="224.5" y="-66.6" font-family="Times New Roman,serif" font-size="12.00">WB Stage</text>
</g>
<!-- PC -->
<g id="node1" class="node">
<title>PC</title>
<path fill="lightgray" stroke="black" d="M59.25,-353C59.25,-353 29.25,-353 29.25,-353 23.25,-353 17.25,-347 17.25,-341 17.25,-341 17.25,-329 17.25,-329 17.25,-323 23.25,-317 29.25,-317 29.25,-317 59.25,-317 59.25,-317 65.25,-317 71.25,-323 71.25,-329 71.25,-329 71.25,-341 71.25,-341 71.25,-347 65.25,-353 59.25,-353"/>
<text text-anchor="middle" x="44.25" y="-329.57" font-family="Times New Roman,serif" font-size="14.00">PC</text>
</g>
<!-- IMEM -->
<g id="node2" class="node">
<title>IMEM</title>
<path fill="lightgray" stroke="black" d="M250.5,-446.75C250.5,-446.75 198.5,-446.75 198.5,-446.75 192.5,-446.75 186.5,-440.75 186.5,-434.75 186.5,-434.75 186.5,-419.25 186.5,-419.25 186.5,-413.25 192.5,-407.25 198.5,-407.25 198.5,-407.25 250.5,-407.25 250.5,-407.25 256.5,-407.25 262.5,-413.25 262.5,-419.25 262.5,-419.25 262.5,-434.75 262.5,-434.75 262.5,-440.75 256.5,-446.75 250.5,-446.75"/>
<text text-anchor="middle" x="224.5" y="-429.45" font-family="Times New Roman,serif" font-size="14.00">Instruction</text>
<text text-anchor="middle" x="224.5" y="-413.7" font-family="Times New Roman,serif" font-size="14.00">Memory</text>
</g>
<!-- PC&#45;&gt;IMEM -->
<g id="edge1" class="edge">
<title>PC&#45;&gt;IMEM</title>
<path fill="none" stroke="black" d="M71.55,-348.57C99.02,-362.75 142.69,-385.29 176.18,-402.58"/>
<polygon fill="black" stroke="black" points="174.38,-405.59 184.87,-407.06 177.59,-399.37 174.38,-405.59"/>
<text text-anchor="middle" x="121.25" y="-380.45" font-family="Times New Roman,serif" font-size="14.00">addr</text>
</g>
<!-- IF_ID -->
<g id="node4" class="node">
<title>IF_ID</title>
<path fill="none" stroke="black" d="M267,-291.75C267,-291.75 182,-291.75 182,-291.75 176,-291.75 170,-285.75 170,-279.75 170,-279.75 170,-264.25 170,-264.25 170,-258.25 176,-252.25 182,-252.25 182,-252.25 267,-252.25 267,-252.25 273,-252.25 279,-258.25 279,-264.25 279,-264.25 279,-279.75 279,-279.75 279,-285.75 273,-291.75 267,-291.75"/>
<text text-anchor="middle" x="224.5" y="-274.45" font-family="Times New Roman,serif" font-size="14.00">IF / ID</text>
<text text-anchor="middle" x="224.5" y="-258.7" font-family="Times New Roman,serif" font-size="14.00">Pipeline Register</text>
</g>
<!-- IMEM&#45;&gt;IF_ID -->
<g id="edge2" class="edge">
<title>IMEM&#45;&gt;IF_ID</title>
<path fill="none" stroke="black" d="M224.5,-406.96C224.5,-372.37 224.5,-337.79 224.5,-303.21"/>
<polygon fill="black" stroke="black" points="228,-303.49 224.5,-293.49 221,-303.49 228,-303.49"/>
</g>
<!-- PC4 -->
<g id="node3" class="node">
<title>PC4</title>
<path fill="lightgray" stroke="black" d="M60.5,-447C60.5,-447 28,-447 28,-447 22,-447 16,-441 16,-435 16,-435 16,-423 16,-423 16,-417 22,-411 28,-411 28,-411 60.5,-411 60.5,-411 66.5,-411 72.5,-417 72.5,-423 72.5,-423 72.5,-435 72.5,-435 72.5,-441 66.5,-447 60.5,-447"/>
<text text-anchor="middle" x="44.25" y="-423.57" font-family="Times New Roman,serif" font-size="14.00">PC + 4</text>
</g>
<!-- PC4&#45;&gt;IF_ID -->
<g id="edge3" class="edge">
<title>PC4&#45;&gt;IF_ID</title>
<path fill="none" stroke="black" d="M57.83,-410.62C76.8,-384.08 115.2,-334.62 164.16,-298.74"/>
<polygon fill="black" stroke="black" points="166.03,-301.7 172.19,-293.08 162,-295.98 166.03,-301.7"/>
</g>
<!-- REG -->
<g id="node5" class="node">
<title>REG</title>
<path fill="lightgray" stroke="black" d="M478.75,-368C478.75,-368 417,-368 417,-368 411,-368 405,-362 405,-356 405,-356 405,-344 405,-344 405,-338 411,-332 417,-332 417,-332 478.75,-332 478.75,-332 484.75,-332 490.75,-338 490.75,-344 490.75,-344 490.75,-356 490.75,-356 490.75,-362 484.75,-368 478.75,-368"/>
<text text-anchor="middle" x="447.88" y="-344.57" font-family="Times New Roman,serif" font-size="14.00">Register File</text>
</g>
<!-- IF_ID&#45;&gt;REG -->
<g id="edge4" class="edge">
<title>IF_ID&#45;&gt;REG</title>
<path fill="none" stroke="black" d="M275.95,-292.24C277.88,-293.44 279.77,-294.7 281.57,-296 299.79,-309.2 295.1,-323.51 315,-334 338.69,-346.48 368.02,-350.94 393,-352.07"/>
<polygon fill="black" stroke="black" points="392.9,-355.57 402.99,-352.34 393.08,-348.57 392.9,-355.57"/>
</g>
<!-- CTRL -->
<g id="node6" class="node">
<title>CTRL</title>
<path fill="lightgray" stroke="black" d="M478.75,-273.75C478.75,-273.75 417,-273.75 417,-273.75 411,-273.75 405,-267.75 405,-261.75 405,-261.75 405,-246.25 405,-246.25 405,-240.25 411,-234.25 417,-234.25 417,-234.25 478.75,-234.25 478.75,-234.25 484.75,-234.25 490.75,-240.25 490.75,-246.25 490.75,-246.25 490.75,-261.75 490.75,-261.75 490.75,-267.75 484.75,-273.75 478.75,-273.75"/>
<text text-anchor="middle" x="447.88" y="-256.45" font-family="Times New Roman,serif" font-size="14.00">Main</text>
<text text-anchor="middle" x="447.88" y="-240.7" font-family="Times New Roman,serif" font-size="14.00">Control Unit</text>
</g>
<!-- IF_ID&#45;&gt;CTRL -->
<g id="edge5" class="edge">
<title>IF_ID&#45;&gt;CTRL</title>
<path fill="none" stroke="black" d="M279.32,-262.47C291.04,-260.7 303.41,-259.08 315,-258 340.68,-255.61 369.27,-254.55 393.26,-254.11"/>
<polygon fill="black" stroke="black" points="393.16,-257.61 403.11,-253.96 393.06,-250.61 393.16,-257.61"/>
</g>
<!-- IMM -->
<g id="node7" class="node">
<title>IMM</title>
<path fill="lightgray" stroke="black" d="M472.75,-465.75C472.75,-465.75 423,-465.75 423,-465.75 417,-465.75 411,-459.75 411,-453.75 411,-453.75 411,-438.25 411,-438.25 411,-432.25 417,-426.25 423,-426.25 423,-426.25 472.75,-426.25 472.75,-426.25 478.75,-426.25 484.75,-432.25 484.75,-438.25 484.75,-438.25 484.75,-453.75 484.75,-453.75 484.75,-459.75 478.75,-465.75 472.75,-465.75"/>
<text text-anchor="middle" x="447.88" y="-448.45" font-family="Times New Roman,serif" font-size="14.00">Immediate</text>
<text text-anchor="middle" x="447.88" y="-432.7" font-family="Times New Roman,serif" font-size="14.00">Generator</text>
</g>
<!-- IF_ID&#45;&gt;IMM -->
<g id="edge6" class="edge">
<title>IF_ID&#45;&gt;IMM</title>
<path fill="none" stroke="black" d="M277.36,-292.09C278.84,-293.32 280.25,-294.62 281.57,-296 310.76,-326.54 286.25,-354.04 315,-385 337.66,-409.4 372,-424.85 399.96,-434.1"/>
<polygon fill="black" stroke="black" points="398.69,-437.37 409.27,-437.01 400.77,-430.68 398.69,-437.37"/>
</g>
<!-- ID_EX -->
<g id="node9" class="node">
<title>ID_EX</title>
<path fill="none" stroke="black" d="M660.75,-543.75C660.75,-543.75 575.75,-543.75 575.75,-543.75 569.75,-543.75 563.75,-537.75 563.75,-531.75 563.75,-531.75 563.75,-516.25 563.75,-516.25 563.75,-510.25 569.75,-504.25 575.75,-504.25 575.75,-504.25 660.75,-504.25 660.75,-504.25 666.75,-504.25 672.75,-510.25 672.75,-516.25 672.75,-516.25 672.75,-531.75 672.75,-531.75 672.75,-537.75 666.75,-543.75 660.75,-543.75"/>
<text text-anchor="middle" x="618.25" y="-526.45" font-family="Times New Roman,serif" font-size="14.00">ID / EX</text>
<text text-anchor="middle" x="618.25" y="-510.7" font-family="Times New Roman,serif" font-size="14.00">Pipeline Register</text>
</g>
<!-- REG&#45;&gt;ID_EX -->
<g id="edge8" class="edge">
<title>REG&#45;&gt;ID_EX</title>
<path fill="none" stroke="black" d="M466.07,-368.34C473.84,-376.87 482.99,-387.25 490.75,-397 523.51,-438.16 520.91,-461.36 560.45,-496.66"/>
<polygon fill="black" stroke="black" points="557.91,-499.09 567.79,-502.91 562.45,-493.76 557.91,-499.09"/>
</g>
<!-- HAZ -->
<g id="node8" class="node">
<title>HAZ</title>
<path fill="lightyellow" stroke="black" d="M654.38,-273.75C654.38,-273.75 582.12,-273.75 582.12,-273.75 576.12,-273.75 570.12,-267.75 570.12,-261.75 570.12,-261.75 570.12,-246.25 570.12,-246.25 570.12,-240.25 576.12,-234.25 582.12,-234.25 582.12,-234.25 654.38,-234.25 654.38,-234.25 660.38,-234.25 666.38,-240.25 666.38,-246.25 666.38,-246.25 666.38,-261.75 666.38,-261.75 666.38,-267.75 660.38,-273.75 654.38,-273.75"/>
<text text-anchor="middle" x="618.25" y="-256.45" font-family="Times New Roman,serif" font-size="14.00">Hazard</text>
<text text-anchor="middle" x="618.25" y="-240.7" font-family="Times New Roman,serif" font-size="14.00">Detection Unit</text>
</g>
<!-- CTRL&#45;&gt;HAZ -->
<g id="edge7" class="edge">
<title>CTRL&#45;&gt;HAZ</title>
<path fill="none" stroke="black" d="M490.93,-254C511.33,-254 536.19,-254 558.43,-254"/>
<polygon fill="black" stroke="black" points="558.28,-257.5 568.28,-254 558.28,-250.5 558.28,-257.5"/>
</g>
<!-- CTRL&#45;&gt;ID_EX -->
<g id="edge10" class="edge">
<title>CTRL&#45;&gt;ID_EX</title>
<path fill="none" stroke="black" d="M468.97,-274.22C476.53,-282.61 484.74,-292.77 490.75,-303 536.19,-380.37 502.81,-427.98 560.28,-495.48"/>
<polygon fill="black" stroke="black" points="557.46,-497.57 566.74,-502.68 562.67,-492.9 557.46,-497.57"/>
</g>
<!-- IMM&#45;&gt;ID_EX -->
<g id="edge9" class="edge">
<title>IMM&#45;&gt;ID_EX</title>
<path fill="none" stroke="black" d="M485.02,-463.19C505.31,-472.8 531.35,-485.05 561.58,-498.98"/>
<polygon fill="black" stroke="black" points="560.06,-502.13 570.61,-503.13 562.98,-495.77 560.06,-502.13"/>
</g>
<!-- MUX_FW_A -->
<g id="node12" class="node">
<title>MUX_FW_A</title>
<ellipse fill="lightgray" stroke="black" cx="838.85" cy="-446" rx="34.1" ry="18"/>
<text text-anchor="middle" x="838.85" y="-440.57" font-family="Times New Roman,serif" font-size="14.00">FwdA</text>
</g>
<!-- ID_EX&#45;&gt;MUX_FW_A -->
<g id="edge11" class="edge">
<title>ID_EX&#45;&gt;MUX_FW_A</title>
<path fill="none" stroke="black" d="M673.01,-504.82C712.13,-490.86 764.19,-472.28 799.25,-459.77"/>
<polygon fill="black" stroke="black" points="800.33,-463.1 808.57,-456.45 797.98,-456.51 800.33,-463.1"/>
</g>
<!-- MUX_FW_B -->
<g id="node13" class="node">
<title>MUX_FW_B</title>
<ellipse fill="lightgray" stroke="black" cx="838.85" cy="-352" rx="33.6" ry="18"/>
<text text-anchor="middle" x="838.85" y="-346.57" font-family="Times New Roman,serif" font-size="14.00">FwdB</text>
</g>
<!-- ID_EX&#45;&gt;MUX_FW_B -->
<g id="edge12" class="edge">
<title>ID_EX&#45;&gt;MUX_FW_B</title>
<path fill="none" stroke="black" d="M668.92,-503.83C670.81,-502.61 672.63,-501.33 674.38,-500 693.8,-485.12 691.52,-474.37 708.75,-457 740.59,-424.89 781.77,-392.78 808.95,-372.69"/>
<polygon fill="black" stroke="black" points="810.72,-375.73 816.72,-367 806.59,-370.08 810.72,-375.73"/>
</g>
<!-- MUX_A -->
<g id="node10" class="node">
<title>MUX_A</title>
<ellipse fill="lightgray" stroke="black" cx="986.53" cy="-446" rx="40.58" ry="18"/>
<text text-anchor="middle" x="986.53" y="-440.57" font-family="Times New Roman,serif" font-size="14.00">MUX A</text>
</g>
<!-- ALU -->
<g id="node14" class="node">
<title>ALU</title>
<path fill="lightgray" stroke="black" d="M1142.12,-417C1142.12,-417 1112.12,-417 1112.12,-417 1106.12,-417 1100.12,-411 1100.12,-405 1100.12,-405 1100.12,-393 1100.12,-393 1100.12,-387 1106.12,-381 1112.12,-381 1112.12,-381 1142.12,-381 1142.12,-381 1148.12,-381 1154.12,-387 1154.12,-393 1154.12,-393 1154.12,-405 1154.12,-405 1154.12,-411 1148.12,-417 1142.12,-417"/>
<text text-anchor="middle" x="1127.12" y="-393.57" font-family="Times New Roman,serif" font-size="14.00">ALU</text>
</g>
<!-- MUX_A&#45;&gt;ALU -->
<g id="edge15" class="edge">
<title>MUX_A&#45;&gt;ALU</title>
<path fill="none" stroke="black" d="M1019.67,-435.1C1040.37,-428.08 1067.35,-418.93 1088.97,-411.6"/>
<polygon fill="black" stroke="black" points="1089.94,-414.96 1098.29,-408.44 1087.7,-408.33 1089.94,-414.96"/>
</g>
<!-- MUX_B -->
<g id="node11" class="node">
<title>MUX_B</title>
<ellipse fill="lightgray" stroke="black" cx="986.53" cy="-352" rx="40.09" ry="18"/>
<text text-anchor="middle" x="986.53" y="-346.57" font-family="Times New Roman,serif" font-size="14.00">MUX B</text>
</g>
<!-- MUX_B&#45;&gt;ALU -->
<g id="edge16" class="edge">
<title>MUX_B&#45;&gt;ALU</title>
<path fill="none" stroke="black" d="M1019.33,-362.78C1040.15,-369.84 1067.44,-379.1 1089.22,-386.49"/>
<polygon fill="black" stroke="black" points="1088.01,-389.77 1098.61,-389.67 1090.26,-383.14 1088.01,-389.77"/>
</g>
<!-- MUX_FW_A&#45;&gt;MUX_A -->
<g id="edge13" class="edge">
<title>MUX_FW_A&#45;&gt;MUX_A</title>
<path fill="none" stroke="black" d="M873.27,-446C891.33,-446 914.02,-446 934.26,-446"/>
<polygon fill="black" stroke="black" points="934.02,-449.5 944.02,-446 934.02,-442.5 934.02,-449.5"/>
</g>
<!-- MUX_FW_B&#45;&gt;MUX_B -->
<g id="edge14" class="edge">
<title>MUX_FW_B&#45;&gt;MUX_B</title>
<path fill="none" stroke="black" d="M872.91,-352C891.17,-352 914.24,-352 934.74,-352"/>
<polygon fill="black" stroke="black" points="934.62,-355.5 944.62,-352 934.62,-348.5 934.62,-355.5"/>
</g>
<!-- BRANCH -->
<g id="node16" class="node">
<title>BRANCH</title>
<path fill="lightgray" stroke="black" d="M1315.49,-348.75C1315.49,-348.75 1247.74,-348.75 1247.74,-348.75 1241.74,-348.75 1235.74,-342.75 1235.74,-336.75 1235.74,-336.75 1235.74,-321.25 1235.74,-321.25 1235.74,-315.25 1241.74,-309.25 1247.74,-309.25 1247.74,-309.25 1315.49,-309.25 1315.49,-309.25 1321.49,-309.25 1327.49,-315.25 1327.49,-321.25 1327.49,-321.25 1327.49,-336.75 1327.49,-336.75 1327.49,-342.75 1321.49,-348.75 1315.49,-348.75"/>
<text text-anchor="middle" x="1281.62" y="-331.45" font-family="Times New Roman,serif" font-size="14.00">Branch</text>
<text text-anchor="middle" x="1281.62" y="-315.7" font-family="Times New Roman,serif" font-size="14.00">Decision Unit</text>
</g>
<!-- ALU&#45;&gt;BRANCH -->
<g id="edge17" class="edge">
<title>ALU&#45;&gt;BRANCH</title>
<path fill="none" stroke="black" d="M1154.33,-386.97C1174.08,-377.9 1201.84,-365.16 1226.31,-353.93"/>
<polygon fill="black" stroke="black" points="1227.55,-357.21 1235.18,-349.85 1224.63,-350.85 1227.55,-357.21"/>
</g>
<!-- EX_MEM -->
<g id="node17" class="node">
<title>EX_MEM</title>
<path fill="none" stroke="black" d="M1324.12,-541.75C1324.12,-541.75 1239.12,-541.75 1239.12,-541.75 1233.12,-541.75 1227.12,-535.75 1227.12,-529.75 1227.12,-529.75 1227.12,-514.25 1227.12,-514.25 1227.12,-508.25 1233.12,-502.25 1239.12,-502.25 1239.12,-502.25 1324.12,-502.25 1324.12,-502.25 1330.12,-502.25 1336.12,-508.25 1336.12,-514.25 1336.12,-514.25 1336.12,-529.75 1336.12,-529.75 1336.12,-535.75 1330.12,-541.75 1324.12,-541.75"/>
<text text-anchor="middle" x="1281.62" y="-524.45" font-family="Times New Roman,serif" font-size="14.00">EX / MEM</text>
<text text-anchor="middle" x="1281.62" y="-508.7" font-family="Times New Roman,serif" font-size="14.00">Pipeline Register</text>
</g>
<!-- ALU&#45;&gt;EX_MEM -->
<g id="edge18" class="edge">
<title>ALU&#45;&gt;EX_MEM</title>
<path fill="none" stroke="black" d="M1142.93,-417.45C1159.57,-437.32 1188.33,-469.2 1223.93,-495.34"/>
<polygon fill="black" stroke="black" points="1221.71,-498.05 1231.89,-500.97 1225.75,-492.34 1221.71,-498.05"/>
</g>
<!-- ALUCTRL -->
<g id="node15" class="node">
<title>ALUCTRL</title>
<path fill="lightgray" stroke="black" d="M856.22,-275.75C856.22,-275.75 821.47,-275.75 821.47,-275.75 815.47,-275.75 809.47,-269.75 809.47,-263.75 809.47,-263.75 809.47,-248.25 809.47,-248.25 809.47,-242.25 815.47,-236.25 821.47,-236.25 821.47,-236.25 856.22,-236.25 856.22,-236.25 862.22,-236.25 868.22,-242.25 868.22,-248.25 868.22,-248.25 868.22,-263.75 868.22,-263.75 868.22,-269.75 862.22,-275.75 856.22,-275.75"/>
<text text-anchor="middle" x="838.85" y="-258.45" font-family="Times New Roman,serif" font-size="14.00">ALU</text>
<text text-anchor="middle" x="838.85" y="-242.7" font-family="Times New Roman,serif" font-size="14.00">Control</text>
</g>
<!-- BRANCH&#45;&gt;PC -->
<g id="edge24" class="edge">
<title>BRANCH&#45;&gt;PC</title>
<path fill="none" stroke="red" d="M1269.31,-309.07C1241.74,-261.64 1170.2,-146 1128.12,-146 223.5,-146 223.5,-146 223.5,-146 136.55,-146 79.47,-253.19 56.58,-306.12"/>
<polygon fill="red" stroke="red" points="53.44,-304.56 52.8,-315.14 59.9,-307.27 53.44,-304.56"/>
<text text-anchor="middle" x="738.75" y="-148.45" font-family="Times New Roman,serif" font-size="14.00">branch PC</text>
</g>
<!-- DMEM -->
<g id="node18" class="node">
<title>DMEM</title>
<path fill="lightgray" stroke="black" d="M1301.24,-189.75C1301.24,-189.75 1261.99,-189.75 1261.99,-189.75 1255.99,-189.75 1249.99,-183.75 1249.99,-177.75 1249.99,-177.75 1249.99,-162.25 1249.99,-162.25 1249.99,-156.25 1255.99,-150.25 1261.99,-150.25 1261.99,-150.25 1301.24,-150.25 1301.24,-150.25 1307.24,-150.25 1313.24,-156.25 1313.24,-162.25 1313.24,-162.25 1313.24,-177.75 1313.24,-177.75 1313.24,-183.75 1307.24,-189.75 1301.24,-189.75"/>
<text text-anchor="middle" x="1281.62" y="-172.45" font-family="Times New Roman,serif" font-size="14.00">Data</text>
<text text-anchor="middle" x="1281.62" y="-156.7" font-family="Times New Roman,serif" font-size="14.00">Memory</text>
</g>
<!-- EX_MEM&#45;&gt;DMEM -->
<g id="edge19" class="edge">
<title>EX_MEM&#45;&gt;DMEM</title>
<path fill="none" stroke="black" d="M1226.91,-503.53C1212.04,-495.49 1198.01,-484.31 1190.62,-469 1146.95,-378.54 1147.17,-333.56 1190.62,-243 1200.99,-221.39 1221.22,-204.15 1239.98,-191.87"/>
<polygon fill="black" stroke="black" points="1241.66,-194.95 1248.31,-186.7 1237.97,-189 1241.66,-194.95"/>
</g>
<!-- MEM_WB -->
<g id="node19" class="node">
<title>MEM_WB</title>
<path fill="none" stroke="black" d="M1506.12,-189.75C1506.12,-189.75 1421.12,-189.75 1421.12,-189.75 1415.12,-189.75 1409.12,-183.75 1409.12,-177.75 1409.12,-177.75 1409.12,-162.25 1409.12,-162.25 1409.12,-156.25 1415.12,-150.25 1421.12,-150.25 1421.12,-150.25 1506.12,-150.25 1506.12,-150.25 1512.12,-150.25 1518.12,-156.25 1518.12,-162.25 1518.12,-162.25 1518.12,-177.75 1518.12,-177.75 1518.12,-183.75 1512.12,-189.75 1506.12,-189.75"/>
<text text-anchor="middle" x="1463.62" y="-172.45" font-family="Times New Roman,serif" font-size="14.00">MEM / WB</text>
<text text-anchor="middle" x="1463.62" y="-156.7" font-family="Times New Roman,serif" font-size="14.00">Pipeline Register</text>
</g>
<!-- EX_MEM&#45;&gt;MEM_WB -->
<g id="edge21" class="edge">
<title>EX_MEM&#45;&gt;MEM_WB</title>
<path fill="none" stroke="black" d="M1332.09,-501.79C1333.51,-500.59 1334.86,-499.33 1336.12,-498 1418.35,-411.23 1448.8,-265.22 1458.57,-201.42"/>
<polygon fill="black" stroke="black" points="1462.02,-202.04 1459.99,-191.64 1455.09,-201.04 1462.02,-202.04"/>
</g>
<!-- DMEM&#45;&gt;MEM_WB -->
<g id="edge20" class="edge">
<title>DMEM&#45;&gt;MEM_WB</title>
<path fill="none" stroke="black" d="M1313.56,-170C1336.63,-170 1368.97,-170 1397.64,-170"/>
<polygon fill="black" stroke="black" points="1397.31,-173.5 1407.31,-170 1397.31,-166.5 1397.31,-173.5"/>
</g>
<!-- MUX_WB -->
<g id="node20" class="node">
<title>MUX_WB</title>
<ellipse fill="lightgray" stroke="black" cx="224.5" cy="-34" rx="49.07" ry="18"/>
<text text-anchor="middle" x="224.5" y="-28.57" font-family="Times New Roman,serif" font-size="14.00">WB MUX</text>
</g>
<!-- MEM_WB&#45;&gt;MUX_WB -->
<g id="edge22" class="edge">
<title>MEM_WB&#45;&gt;MUX_WB</title>
<path fill="none" stroke="black" d="M1450.25,-149.96C1424.37,-110.81 1360.43,-28 1282.62,-28 446.88,-28 446.88,-28 446.88,-28 391.99,-28 329.49,-29.87 284.92,-31.52"/>
<polygon fill="black" stroke="black" points="284.8,-28.02 274.94,-31.89 285.06,-35.01 284.8,-28.02"/>
</g>
<!-- MUX_WB&#45;&gt;REG -->
<g id="edge23" class="edge">
<title>MUX_WB&#45;&gt;REG</title>
<path fill="none" stroke="black" d="M234.94,-52.01C258.83,-96.82 324.97,-215.95 397,-303 403.11,-310.38 410.3,-317.76 417.3,-324.42"/>
<polygon fill="black" stroke="black" points="414.52,-326.62 424.24,-330.83 419.27,-321.48 414.52,-326.62"/>
<text text-anchor="middle" x="342" y="-263.45" font-family="Times New Roman,serif" font-size="14.00">write data</text>
</g>
</g>
</svg>
